<svg width="114" height="114" viewBox="0 0 114 114" fill="none" xmlns="http://www.w3.org/2000/svg">
<g clip-path="url(#clip0_205_7)">
<path d="M57 52.25C59.6234 52.25 61.75 54.3766 61.75 57V88.273L67.8937 82.1384C69.7504 80.285 72.7576 80.2873 74.6116 82.1436C76.465 84.0004 76.4627 87.0077 74.6064 88.8616L61.1952 102.251C59.993 103.452 58.8235 104.5 57 104.5C55.4044 104.5 54.3096 103.697 53.2554 102.693L39.3939 88.8616C37.5374 87.0077 37.5351 84.0004 39.3886 82.1436C41.2422 80.2873 44.2497 80.285 46.1061 82.1384L52.25 88.273V57C52.25 54.3766 54.3766 52.25 57 52.25ZM54.625 9.5C67.8514 9.5 79.1355 17.8168 83.5325 29.5061C95.6175 32.8093 104.5 43.8673 104.5 57C104.5 69.4422 96.5271 80.0223 85.4117 83.9092C85.0658 80.8127 83.7069 77.8078 81.3342 75.4314C78.8042 72.8975 75.5574 71.515 72.245 71.2846L71.25 71.25V57C71.25 49.1297 64.8703 42.75 57 42.75C49.4108 42.75 43.2076 48.6822 42.7742 56.1627L42.75 57V71.25C39.0994 71.25 35.449 72.6441 32.6658 75.4314C30.0087 78.0928 28.6229 81.5428 28.5078 85.0264C17.6633 82.8291 9.5 73.2426 9.5 61.75C9.5 52.0101 15.3631 43.6394 23.7525 39.9751C23.9666 23.1076 37.7067 9.5 54.625 9.5Z" fill="#444444"/>
</g>
<defs>
<clipPath id="clip0_205_7">
<rect width="114" height="114" fill="white"/>
</clipPath>
</defs>
</svg>
